<svg xmlns="http://www.w3.org/2000/svg" fill="none" height="30" viewBox="0 0 45 30" width="40">
  <path
    d="M6.19788 18.318C5.31138 18.318 4.47738 17.973 3.85188 17.346C3.22638 16.719 2.87988 15.8865 2.87988 15C2.87988 14.1135 3.22488 13.2795 3.85188 12.654C4.47888 12.0285 5.31138 11.682 6.19788 11.682C7.08438 11.682 7.91838 12.027 8.54388 12.654C9.16938 13.281 9.51588 14.1135 9.51588 15C9.51588 15.8865 9.17088 16.7205 8.54388 17.346C7.91688 17.9715 7.08438 18.318 6.19788 18.318V18.318ZM6.19788 13.602C5.42688 13.602 4.79988 14.229 4.79988 15C4.79988 15.771 5.42688 16.398 6.19788 16.398C6.96888 16.398 7.59588 15.771 7.59588 15C7.59588 14.229 6.96888 13.602 6.19788 13.602V13.602Z"
    fill="#008cff" />
  <path
    d="M14.9999 18.318C14.1134 18.318 13.2794 17.973 12.6539 17.346C12.0284 16.719 11.6819 15.8865 11.6819 15C11.6819 14.1135 12.0269 13.2795 12.6539 12.654C13.2809 12.0285 14.1134 11.682 14.9999 11.682C15.8864 11.682 16.7204 12.027 17.3459 12.654C17.9714 13.281 18.3179 14.1135 18.3179 15C18.3179 15.8865 17.9729 16.7205 17.3459 17.346C16.7189 17.9715 15.8864 18.318 14.9999 18.318V18.318ZM14.9999 13.602C14.2289 13.602 13.6019 14.229 13.6019 15C13.6019 15.771 14.2289 16.398 14.9999 16.398C15.7709 16.398 16.3979 15.771 16.3979 15C16.3979 14.229 15.7709 13.602 14.9999 13.602V13.602Z"
    fill="#008cff" />
  <path
    d="M23.8019 18.318C22.9154 18.318 22.0814 17.973 21.4559 17.346C20.8304 16.719 20.4839 15.8865 20.4839 15C20.4839 14.1135 20.8289 13.2795 21.4559 12.654C22.0829 12.0285 22.9154 11.682 23.8019 11.682C24.6884 11.682 25.5224 12.027 26.1479 12.654C26.7734 13.281 27.1199 14.1135 27.1199 15C27.1199 15.8865 26.7749 16.7205 26.1479 17.346C25.5209 17.9715 24.6884 18.318 23.8019 18.318ZM23.8019 13.602C23.0309 13.602 22.4039 14.229 22.4039 15C22.4039 15.771 23.0309 16.398 23.8019 16.398C24.5729 16.398 25.1999 15.771 25.1999 15C25.1999 14.229 24.5729 13.602 23.8019 13.602V13.602Z"
    fill="#008cff" />
</svg>
